<?xml version="1.0" encoding="UTF-8"?>
<svg version="1.1" xmlns="http://www.w3.org/2000/svg" width="275" height="275">
<path d="M0 0 C4.31502073 -0.04477318 8.6299063 -0.07910149 12.94511986 -0.09815216 C14.85836365 -0.10812316 16.77156177 -0.12592014 18.68474579 -0.14403534 C40.92381826 -0.19403174 61.74246972 5.84113928 78.34329987 21.08679962 C85.74164504 28.7606151 91.07087191 38.72577141 93.71829987 49.02429962 C93.98380646 50.03303131 93.98380646 50.03303131 94.25467682 51.06214142 C96.09399366 59.01389135 96.07234451 66.9718209 96.03079987 75.08679962 C96.02897705 75.82140411 96.02715424 76.55600861 96.02527618 77.31287384 C95.97982624 88.1734861 95.49096947 98.47026693 92.71829987 109.02429962 C92.5520108 109.7023465 92.38572174 110.38039337 92.21439362 111.07898712 C87.97134896 128.23974553 80.64406042 143.1556326 69.71829987 157.02429962 C69.08408112 157.84285431 68.44986237 158.661409 67.79642487 159.50476837 C50.44793918 180.4489872 23.63314436 191.6635186 -2.90670013 194.33679962 C-10.8603716 195.03343057 -18.34316805 194.93037292 -26.28170013 194.02429962 C-45.72445878 192.15278478 -64.90585481 191.326923 -84.40645599 192.66590118 C-90.70356798 193.0932409 -96.97339787 193.12303827 -103.28170013 193.02429962 C-102.59096526 187.03562822 -101.67750438 181.13024819 -100.53170013 175.21179962 C-100.38732513 174.36681915 -100.24295013 173.52183868 -100.09420013 172.65125275 C-98.8864744 166.52009671 -98.8864744 166.52009671 -95.87545013 164.05164337 C-95.01951263 163.71261993 -94.16357513 163.3735965 -93.28170013 163.02429962 C-92.64748138 162.722659 -92.01326263 162.42101837 -91.35982513 162.11023712 C-82.54170845 158.68096952 -73.13172684 158.80606161 -63.78324318 158.42411232 C-61.70870287 158.33882908 -59.63441235 158.24885567 -57.56012726 158.15758514 C-51.66885729 157.89883992 -45.77737677 157.64557696 -39.8854599 157.40198517 C-36.26321977 157.25189849 -32.64137977 157.09411747 -29.0196743 156.93166161 C-27.65205783 156.87179469 -26.28431401 156.81475886 -24.91645241 156.76078224 C-6.19045389 156.16124593 -6.19045389 156.16124593 9.28079987 146.64929962 C27.10637227 124.63186887 28.71437032 90.52234427 26.40970612 63.39148712 C25.3505331 56.06163492 23.61999764 49.00235786 18.34329987 43.58679962 C11.84544443 39.71902853 6.07963769 39.82882564 -1.28170013 40.02429962 C-3.72739981 48.0141729 -5.2027963 55.99334386 -6.38971901 64.25743484 C-6.6992055 66.41138519 -7.01721327 68.5639367 -7.33722687 70.71634674 C-8.0136515 75.27625367 -8.67953786 79.83766558 -9.34420013 84.39929962 C-10.11884177 89.7118842 -10.89789448 95.02375911 -11.68694115 100.3342247 C-11.9988396 102.44785178 -12.30329365 104.56246297 -12.60739899 106.67722321 C-12.79777237 107.96271057 -12.98814575 109.24819794 -13.18428802 110.57263947 C-13.43052666 112.26494186 -13.43052666 112.26494186 -13.68173981 113.99143219 C-14.27181233 116.97431566 -14.77749156 119.37609603 -16.28170013 122.02429962 C-18.49391937 123.00521088 -18.49391937 123.00521088 -21.27877045 123.50989532 C-22.84114441 123.80964012 -22.84114441 123.80964012 -24.43508148 124.11544037 C-25.56524689 124.30837173 -26.69541229 124.5013031 -27.85982513 124.70008087 C-29.01915558 124.91496658 -30.17848602 125.12985229 -31.37294769 125.35124969 C-35.08907128 126.03400472 -38.81003762 126.68499252 -42.53170013 127.33679962 C-45.02554336 127.7938586 -47.51903872 128.25282004 -50.01216888 128.71375275 C-52.39857586 129.14841072 -54.78528602 129.58140801 -57.17232513 130.01258087 C-58.29439362 130.21563339 -59.4164621 130.41868591 -60.57253265 130.62789154 C-61.62672394 130.8119606 -62.68091522 130.99602966 -63.7670517 131.18567657 C-64.68923492 131.34824448 -65.61141815 131.51081238 -66.56154633 131.67830658 C-69.49448473 132.051365 -72.32825642 132.08259797 -75.28170013 132.02429962 C-74.70774718 122.35971117 -73.72989212 112.80630642 -72.50920677 103.20636368 C-72.20683772 100.82488581 -71.90986033 98.44278686 -71.61423492 96.06046295 C-70.77434984 89.29827202 -69.92654035 82.53709321 -69.07198334 75.77674103 C-68.54586172 71.61164366 -68.02699374 67.44569222 -67.51239967 63.27915573 C-67.31701607 61.70896992 -67.11892587 60.13911812 -66.91789818 58.56964493 C-65.19063692 45.34090377 -65.19063692 45.34090377 -65.28170013 32.02429962 C-67.45939727 29.84660248 -72.44927954 30.70157697 -75.39888763 30.59851837 C-78.28170013 30.02429962 -78.28170013 30.02429962 -80.26998138 28.56726837 C-81.91158387 24.44107833 -80.62362375 20.85678806 -79.59420013 16.64929962 C-79.40664154 15.811409 -79.21908295 14.97351837 -79.02584076 14.11023712 C-78.00527068 9.64918854 -76.74193298 5.3635173 -75.28170013 1.02429962 C-66.29911202 0.89123454 -57.31649088 0.76072922 -48.3338232 0.63314819 C-44.15896012 0.5737794 -39.9841113 0.51365553 -35.80928802 0.45154572 C-23.87309073 0.27446764 -11.93682485 0.12712465 0 0 Z " fill="#F8F8F8" transform="translate(114.28170013427734,2.9757003784179688)"/>
<path d="M0 0 C2.61406163 3.92109244 1.87239082 6.61052218 1 11 C0.3134016 13.65167295 -0.40859956 16.23766178 -1.22265625 18.84765625 C-1.44307083 19.57382141 -1.66348541 20.29998657 -1.89057922 21.04815674 C-3.09948963 25.01159835 -4.34516656 28.96314254 -5.59814453 32.9128418 C-5.85247253 33.71517746 -6.10680054 34.51751312 -6.36883545 35.34416199 C-6.8796823 36.95507963 -7.39176234 38.56560674 -7.90509033 40.17573547 C-9.37304053 44.82976794 -10.64918432 49.48155253 -11.76953125 54.234375 C-15.25280789 68.0298153 -15.25280789 68.0298153 -20.27880859 71.63427734 C-28.29503435 75.72321988 -37.11930646 78.09798935 -46 76 C-46.33 75.67 -46.66 75.34 -47 75 C-46.94497079 72.62079587 -46.82496857 70.2816716 -46.65234375 67.91015625 C-46.60343491 67.19134781 -46.55452606 66.47253937 -46.50413513 65.73194885 C-45.9814932 58.28901356 -45.28603625 50.86329099 -44.5625 43.4375 C-44.29551357 40.65507737 -44.0305083 37.87246729 -43.765625 35.08984375 C-43.70031082 34.40590546 -43.63499664 33.72196716 -43.56770325 33.01730347 C-42.64761997 23.35055092 -41.82241441 13.67546364 -41 4 C-36.12582999 3.42593957 -31.25115812 2.8564213 -26.37597656 2.29101562 C-24.71925708 2.09823843 -23.06267877 1.90424378 -21.40625 1.70898438 C-19.01859472 1.42774613 -16.63045778 1.15096093 -14.2421875 0.875 C-13.50757294 0.78750488 -12.77295837 0.70000977 -12.01608276 0.60986328 C-3.68943947 -0.34236894 -3.68943947 -0.34236894 0 0 Z " fill="#F2F2F2" transform="translate(266,1)"/>
<path d="M0 0 C2.93756119 -0.0269501 5.87487555 -0.04681474 8.8125 -0.0625 C9.64587891 -0.07087891 10.47925781 -0.07925781 11.33789062 -0.08789062 C12.14033203 -0.09111328 12.94277344 -0.09433594 13.76953125 -0.09765625 C14.87711792 -0.10551147 14.87711792 -0.10551147 16.00708008 -0.11352539 C18 0 18 0 21 1 C21.042721 2.66611905 21.04063832 4.33382885 21 6 C20.67 6.33 20.34 6.66 20 7 C19.60206636 13.38140863 20.71243695 18.75411514 22.4375 24.875 C22.66759766 25.72835937 22.89769531 26.58171875 23.13476562 27.4609375 C24.28468334 31.83555225 24.28468334 31.83555225 26 36 C32.07246301 22.51070028 32.07246301 22.51070028 33 8 C32.195625 7.773125 31.39125 7.54625 30.5625 7.3125 C28 6 28 6 27.125 3.4375 C27.08375 2.633125 27.0425 1.82875 27 1 C28 0 28 0 30.22485352 -0.11352539 C31.18319092 -0.10828857 32.14152832 -0.10305176 33.12890625 -0.09765625 C34.68061523 -0.09282227 34.68061523 -0.09282227 36.26367188 -0.08789062 C37.35228516 -0.07951172 38.44089844 -0.07113281 39.5625 -0.0625 C41.2012207 -0.05573242 41.2012207 -0.05573242 42.87304688 -0.04882812 C45.58208495 -0.03699826 48.29101599 -0.02051543 51 0 C51.495 2.475 51.495 2.475 52 5 C51.01 5.66 50.02 6.32 49 7 C50.56381181 16.6956332 53.79549669 25.74926403 57 35 C58.51495104 31.5011845 59.44067074 28.23733125 60.0703125 24.48046875 C60.24433594 23.45888672 60.41835937 22.43730469 60.59765625 21.38476562 C60.77167969 20.32966797 60.94570312 19.27457031 61.125 18.1875 C61.30675781 17.11306641 61.48851562 16.03863281 61.67578125 14.93164062 C62.12216896 12.28855553 62.56339783 9.64471608 63 7 C61.68 6.34 60.36 5.68 59 5 C59.33 3.35 59.66 1.7 60 0 C66.6 0 73.2 0 80 0 C80.495 2.475 80.495 2.475 81 5 C79.30729167 5.78125 77.61458333 6.5625 75.921875 7.34375 C70.6570087 11.88095185 68.83474169 20.03697491 66.8359375 26.4609375 C66.55779205 27.33271637 66.27964661 28.20449524 65.99307251 29.10269165 C65.11416146 31.85819908 64.24360102 34.61622664 63.375 37.375 C62.22316097 41.03091938 61.06322116 44.68412479 59.8984375 48.3359375 C59.63694916 49.17546967 59.37546082 50.01500183 59.10604858 50.87997437 C58.85884064 51.65483185 58.61163269 52.42968933 58.35693359 53.22802734 C58.14249603 53.91005219 57.92805847 54.59207703 57.7071228 55.29476929 C57 57 57 57 55 59 C52.375 59.125 52.375 59.125 50 59 C47.55861282 52.67186453 45.42430638 46.27736694 43.375 39.8125 C43.06304687 38.84119141 42.75109375 37.86988281 42.4296875 36.86914062 C42.130625 35.92876953 41.8315625 34.98839844 41.5234375 34.01953125 C41.25450684 33.17495361 40.98557617 32.33037598 40.70849609 31.46020508 C40 29 40 29 39.52978516 26.2487793 C39.2675415 25.13563354 39.2675415 25.13563354 39 24 C38.34 23.67 37.68 23.34 37 23 C36.85304687 23.54785156 36.70609375 24.09570312 36.5546875 24.66015625 C34.82906326 30.75934539 32.61043244 36.58571345 30.20166016 42.44042969 C28.36772251 46.94431413 26.86934227 51.44232477 25.640625 56.14453125 C25 58 25 58 23 60 C20.375 60.125 20.375 60.125 18 60 C15.41470984 52.21927096 13.07455819 44.39910563 10.9921875 36.46875 C10.81802307 35.80650421 10.64385864 35.14425842 10.4644165 34.46194458 C9.58425147 31.10599281 8.71432445 27.74769627 7.85546875 24.38623047 C7.52933594 23.13213379 7.20320313 21.87803711 6.8671875 20.5859375 C6.57956543 19.4623584 6.29194336 18.3387793 5.99560547 17.18115234 C4.30740566 11.7870269 2.22306405 7.78619536 -2 4 C-1.34 2.68 -0.68 1.36 0 0 Z " fill="#EBEBEB" transform="translate(28,214)"/>
<path d="M0 0 C1.29421875 0.02707031 2.5884375 0.05414063 3.921875 0.08203125 C19.92138426 0.58710741 19.92138426 0.58710741 26.375 5.75 C29.72295084 10.21393445 29.34115265 15.41421701 28.875 20.75 C27.29500846 25.01597716 25.24891208 27.7251133 21.875 30.75 C22.803125 31.28625 23.73125 31.8225 24.6875 32.375 C28.30040571 35.06696896 29.45761959 36.49785877 30.875 40.75 C31.6288003 47.08401643 31.13870931 52.23545669 27.875 57.75 C19.79829079 65.06951772 5.29847116 62.83125292 -4.8125 62.375 C-6.30399369 62.31660547 -7.79553068 62.25930622 -9.28710938 62.203125 C-12.9003255 62.06468446 -16.51273278 61.91150987 -20.125 61.75 C-20.62 60.265 -20.62 60.265 -21.125 58.75 C-20.38443359 58.31300781 -20.38443359 58.31300781 -19.62890625 57.8671875 C-18.98824219 57.45726562 -18.34757813 57.04734375 -17.6875 56.625 C-16.73037109 56.03332031 -16.73037109 56.03332031 -15.75390625 55.4296875 C-11.04818217 50.57726219 -12.50095926 38.99553226 -12.23339844 32.39697266 C-12.15871915 30.57338514 -12.07553415 28.75013269 -11.98535156 26.92724609 C-11.85312326 24.07661629 -11.76516024 21.22758723 -11.6875 18.375 C-11.64101318 17.47773193 -11.59452637 16.58046387 -11.54663086 15.65600586 C-11.505664 13.20665583 -11.52055888 11.12504371 -12.125 8.75 C-14.96562064 6.07477502 -14.96562064 6.07477502 -18.125 4.75 C-17.8125 2.8125 -17.8125 2.8125 -17.125 0.75 C-11.65088796 -1.07470401 -5.71484969 -0.18453037 0 0 Z M1.875 6.75 C0.99222245 11.26815281 0.76910497 15.52512694 0.8125 20.125 C0.82152344 21.37023437 0.83054688 22.61546875 0.83984375 23.8984375 C0.85144531 24.83945313 0.86304688 25.78046875 0.875 26.75 C4.15800468 27.80833703 4.88053638 27.74812159 8.375 26.5625 C12.8024191 24.38517077 12.8024191 24.38517077 15.875 20.75 C16.31303604 15.98524068 15.48107633 12.64993152 12.8125 8.6875 C8.83167336 6.06184839 6.56775368 6.35230901 1.875 6.75 Z M0.875 32.75 C-0.03183762 35.47051286 -0.25342547 37.07733006 -0.2578125 39.875 C-0.25910156 40.66390625 -0.26039063 41.4528125 -0.26171875 42.265625 C-0.25785156 43.08546875 -0.25398438 43.9053125 -0.25 44.75 C-0.25386719 45.56984375 -0.25773437 46.3896875 -0.26171875 47.234375 C-0.26042969 48.02328125 -0.25914062 48.8121875 -0.2578125 49.625 C-0.25668457 50.34429687 -0.25555664 51.06359375 -0.25439453 51.8046875 C-0.19277378 53.96762361 -0.19277378 53.96762361 0.875 56.75 C5.47058436 57.20955844 9.48613628 57.59287791 13.3125 54.6875 C16.25819661 51.31072583 17.25361511 49.17736733 17.875 44.75 C16.96993464 39.72185913 14.99703919 36.75565358 10.875 33.75 C7.54194406 33.05582602 4.27452968 32.82261131 0.875 32.75 Z " fill="#EDEDED" transform="translate(193.125,212.25)"/>
<path d="M0 0 C6.65686814 -0.0505916 13.31368694 -0.0856876 19.97070312 -0.10986328 C22.23667249 -0.11993859 24.50262881 -0.13359918 26.76855469 -0.15087891 C30.02021501 -0.17506011 33.27170387 -0.18646763 36.5234375 -0.1953125 C38.05005508 -0.21079636 38.05005508 -0.21079636 39.60751343 -0.22659302 C40.54833771 -0.22674408 41.48916199 -0.22689514 42.45849609 -0.22705078 C43.28900482 -0.231492 44.11951355 -0.23593323 44.97518921 -0.24050903 C47 0 47 0 49 2 C49.1953125 5.0390625 49.1953125 5.0390625 49.125 8.625 C49.10695312 9.81351563 49.08890625 11.00203125 49.0703125 12.2265625 C49.04710937 13.14179688 49.02390625 14.05703125 49 15 C47.68 15 46.36 15 45 15 C43.9296875 13.28515625 43.9296875 13.28515625 42.875 11.0625 C41.19249217 8.55202122 39.95351552 7.2237235 36.96679688 6.52294922 C31.61549021 5.89449212 26.41875098 6 21 6 C20.67 12.93 20.34 19.86 20 27 C29.28467583 27.1374827 29.28467583 27.1374827 32 24 C32.71927295 21.68234271 33.3909893 19.34904126 34 17 C35.875 16.375 35.875 16.375 38 16 C40 18 40 18 40.24291992 20.41430664 C40.23881104 21.40293701 40.23470215 22.39156738 40.23046875 23.41015625 C40.22853516 24.48201172 40.22660156 25.55386719 40.22460938 26.65820312 C40.20624023 28.34333008 40.20624023 28.34333008 40.1875 30.0625 C40.18685547 31.18978516 40.18621094 32.31707031 40.18554688 33.47851562 C40.14013317 41.85986683 40.14013317 41.85986683 39 43 C37.33382885 43.04063832 35.66611905 43.042721 34 43 C33.01 40.03 32.02 37.06 31 34 C27.7 34 24.4 34 21 34 C20.12653995 40.66013292 19.59192458 47.27875782 20 54 C23.06461569 57.06461569 31.77246635 56.86238568 36.03369141 57.07763672 C38.7509091 56.97035149 40.25025889 56.25267732 42.3125 54.5 C43.8011814 52.83767928 43.8011814 52.83767928 45 51 C45.42539063 50.42507813 45.85078125 49.85015625 46.2890625 49.2578125 C47.25702088 47.88159956 48.13941332 46.44578562 49 45 C50.32 45.33 51.64 45.66 53 46 C52.88590318 48.10478604 52.75834639 50.20884577 52.625 52.3125 C52.52058594 54.07013672 52.52058594 54.07013672 52.4140625 55.86328125 C52 59 52 59 50 62 C40.18963619 64.33191677 28.80728289 63.11380279 18.75 63.0625 C17.02213672 63.05747243 15.29427202 63.05291176 13.56640625 63.04882812 C9.37756832 63.03792797 5.18880033 63.02073348 1 63 C0.34 61.68 -0.32 60.36 -1 59 C1 57 1 57 7 56 C7 40.16 7 24.32 7 8 C4.36 6.68 1.72 5.36 -1 4 C-0.67 2.68 -0.34 1.36 0 0 Z " fill="#DCDCDC" transform="translate(112,212)"/>
<path d="M0 0 C2.93756119 -0.0269501 5.87487555 -0.04681474 8.8125 -0.0625 C9.64587891 -0.07087891 10.47925781 -0.07925781 11.33789062 -0.08789062 C12.14033203 -0.09111328 12.94277344 -0.09433594 13.76953125 -0.09765625 C14.87711792 -0.10551147 14.87711792 -0.10551147 16.00708008 -0.11352539 C18 0 18 0 21 1 C21.042721 2.66611905 21.04063832 4.33382885 21 6 C20.67 6.33 20.34 6.66 20 7 C19.8229972 12.38678533 20.16657338 17.593641 20.875 22.9375 C20.96378418 23.62972656 21.05256836 24.32195312 21.14404297 25.03515625 C21.82000182 30.11019353 22.75900744 35.03602976 24 40 C25.32 40 26.64 40 28 40 C27.55149473 42.96013476 27.09170133 45.91772909 26.625 48.875 C26.43550781 50.13763672 26.43550781 50.13763672 26.2421875 51.42578125 C26.11328125 52.23144531 25.984375 53.03710938 25.8515625 53.8671875 C25.73635254 54.61081543 25.62114258 55.35444336 25.50244141 56.12060547 C25 58 25 58 23 60 C20.375 60.125 20.375 60.125 18 60 C15.41470984 52.21927096 13.07455819 44.39910563 10.9921875 36.46875 C10.81802307 35.80650421 10.64385864 35.14425842 10.4644165 34.46194458 C9.58425147 31.10599281 8.71432445 27.74769627 7.85546875 24.38623047 C7.52933594 23.13213379 7.20320313 21.87803711 6.8671875 20.5859375 C6.57956543 19.4623584 6.29194336 18.3387793 5.99560547 17.18115234 C4.30740566 11.7870269 2.22306405 7.78619536 -2 4 C-1.34 2.68 -0.68 1.36 0 0 Z " fill="#E2E2E2" transform="translate(28,214)"/>
<path d="M0 0 C6.6 0 13.2 0 20 0 C20.33 1.65 20.66 3.3 21 5 C19.30729167 5.78125 17.61458333 6.5625 15.921875 7.34375 C10.255635 12.22685114 8.45562618 21.13700008 6.25 28 C5.93417969 28.96550781 5.61835937 29.93101562 5.29296875 30.92578125 C4.52308029 33.28210653 3.75889935 35.64011737 3 38 C2.34 37.67 1.68 37.34 1 37 C1 36.01 1 35.02 1 34 C0.34 34 -0.32 34 -1 34 C-1.33 34.99 -1.66 35.98 -2 37 C-1.14539205 30.6579094 -0.04460934 24.36480793 1.0625 18.0625 C1.24876953 16.99708984 1.43503906 15.93167969 1.62695312 14.83398438 C2.08367256 12.22248608 2.54138084 9.61116522 3 7 C1.68 6.34 0.36 5.68 -1 5 C-0.67 3.35 -0.34 1.7 0 0 Z " fill="#DBDBDB" transform="translate(88,214)"/>
<path d="M0 0 C6.91931536 -0.09212106 13.83784614 -0.11070706 20.75 0.25 C22.19632813 0.31960937 22.19632813 0.31960937 23.671875 0.390625 C26 1 26 1 27.3203125 2.75 C28.0643785 5.21311504 28.20051582 7.18246202 28.125 9.75 C28.10695312 10.54921875 28.08890625 11.3484375 28.0703125 12.171875 C28.04710937 12.77515625 28.02390625 13.3784375 28 14 C26.68 14 25.36 14 24 14 C21.53318816 10.80765526 19.80610473 7.61220946 18 4 C12.06 3.67 6.12 3.34 0 3 C0 2.01 0 1.02 0 0 Z " fill="#EBEBEB" transform="translate(133,213)"/>
<path d="M0 0 C2.08379509 3.84700632 3.49686624 7.90054429 5 12 C5.99 9.36 6.98 6.72 8 4 C9 8 9 8 9 11 C9.99 9.02 10.98 7.04 12 5 C12.66 5 13.32 5 14 5 C12.42545856 9.84591879 10.67580423 14.61019264 8.875 19.375 C8.59785156 20.11105469 8.32070313 20.84710938 8.03515625 21.60546875 C7.35777777 23.40402539 6.67902967 25.2020661 6 27 C5.67 27 5.34 27 5 27 C5.14107747 25.54119891 5.28802415 24.08296449 5.4375 22.625 C5.55931641 21.40683594 5.55931641 21.40683594 5.68359375 20.1640625 C6 18 6 18 7 16 C5.68 16 4.36 16 3 16 C0.89424625 10.47239641 -0.37851209 5.93002267 0 0 Z " fill="#A2A2A2" transform="translate(49,238)"/>
<path d="M0 0 C0.66 0 1.32 0 2 0 C2.14285714 7.42857143 2.14285714 7.42857143 1 11 C2.32 11 3.64 11 5 11 C5 11.66 5 12.32 5 13 C4.34 13 3.68 13 3 13 C2.34 14.98 1.68 16.96 1 19 C0.34 19 -0.32 19 -1 19 C-1.28875 19.94875 -1.5775 20.8975 -1.875 21.875 C-3 25 -3 25 -5 27 C-4.67398976 20.88449752 -4.09841216 15.57851498 -1.69921875 9.92578125 C-0.52017856 6.67848061 -0.30612542 3.4286047 0 0 Z " fill="#B2B2B2" transform="translate(62,224)"/>
<path d="M0 0 C0.33 0 0.66 0 1 0 C1.33 5.61 1.66 11.22 2 17 C9.88021634 16.63040226 9.88021634 16.63040226 16 12 C17.34772903 8.87866256 17.34772903 8.87866256 18 6 C18.6875 7.6875 18.6875 7.6875 19 10 C17.15900617 14.09109741 14.90863185 16.80139458 11 19 C7.3083635 19.32802976 3.69540577 19.2329853 0 19 C-0.82481968 15.39959663 -1.13516938 12.06648597 -1.125 8.375 C-1.12757813 7.43398438 -1.13015625 6.49296875 -1.1328125 5.5234375 C-1 3 -1 3 0 0 Z " fill="#939393" transform="translate(192,252)"/>
<path d="M0 0 C3.875 0.875 3.875 0.875 5 2 C5.09946453 3.76859193 5.13080217 5.54111451 5.1328125 7.3125 C5.13410156 8.38757813 5.13539063 9.46265625 5.13671875 10.5703125 C5.13285156 11.70210937 5.12898437 12.83390625 5.125 14 C5.12886719 15.13179687 5.13273438 16.26359375 5.13671875 17.4296875 C5.13542969 18.50476563 5.13414062 19.57984375 5.1328125 20.6875 C5.13168457 21.68136719 5.13055664 22.67523438 5.12939453 23.69921875 C5 26 5 26 4 27 C2.33382885 27.04063832 0.66611905 27.042721 -1 27 C-1.33 25.02 -1.66 23.04 -2 21 C-1.34 21 -0.68 21 0 21 C0.12375 21.639375 0.2475 22.27875 0.375 22.9375 C0.684375 23.9584375 0.684375 23.9584375 1 25 C1.66 25.33 2.32 25.66 3 26 C3 18.08 3 10.16 3 2 C1.68 2.33 0.36 2.66 -1 3 C-0.67 2.01 -0.34 1.02 0 0 Z " fill="#818181" transform="translate(147,228)"/>
<path d="M0 0 C2 3 2 3 2 6 C1.34 6 0.68 6 0 6 C-0.33 7.65 -0.66 9.3 -1 11 C-4.3 11 -7.6 11 -11 11 C-7.56530675 6.84641746 -4.36729534 3.21124658 0 0 Z " fill="#FBFBFB" transform="translate(162,261)"/>
<path d="M0 0 C0.66 0 1.32 0 2 0 C2 6.6 2 13.2 2 20 C10.35323833 18.52549385 10.35323833 18.52549385 15 16 C15 16.66 15 17.32 15 18 C14.34 18 13.68 18 13 18 C13 18.66 13 19.32 13 20 C8.21133231 22.39433385 5.35604911 23.65782473 0 22 C-1.45747701 19.08504599 -1.13184681 16.49538627 -1.125 13.25 C-1.12757813 12.03828125 -1.13015625 10.8265625 -1.1328125 9.578125 C-1.01077361 6.29025367 -0.62341681 3.22593463 0 0 Z " fill="#9B9B9B" transform="translate(193,219)"/>
<path d="M0 0 C0.66 0.66 1.32 1.32 2 2 C1.76908089 6.38746311 0.09987583 8.07441438 -3 11 C-2.03578125 11.04898437 -1.0715625 11.09796875 -0.078125 11.1484375 C1.18515625 11.22320312 2.4484375 11.29796875 3.75 11.375 C5.00296875 11.44460938 6.2559375 11.51421875 7.546875 11.5859375 C11 12 11 12 15 14 C7.74 14 0.48 14 -7 14 C-7.33 13.01 -7.66 12.02 -8 11 C-7.25943359 10.56300781 -7.25943359 10.56300781 -6.50390625 10.1171875 C-2.10060881 7.36289286 -2.10060881 7.36289286 -0.0625 2.6875 C-0.041875 1.800625 -0.02125 0.91375 0 0 Z " fill="#B7B7B7" transform="translate(180,260)"/>
<path d="M0 0 C0.66 0 1.32 0 2 0 C1.835 1.258125 1.67 2.51625 1.5 3.8125 C0.90172255 9.18845022 0.67192502 14.59641212 1 20 C2.96822886 21.96822886 6.34808709 21.66248381 9 22 C8.67 22.66 8.34 23.32 8 24 C6.5199159 23.88637738 5.04089926 23.75877092 3.5625 23.625 C2.73878906 23.55539062 1.91507813 23.48578125 1.06640625 23.4140625 C0.38449219 23.27742188 -0.29742187 23.14078125 -1 23 C-4.2865159 16.4269682 -1.8038493 6.76443487 0 0 Z " fill="#9A9A9A" transform="translate(131,246)"/>
<path d="M0 0 C6.6 0 13.2 0 20 0 C20.33 1.65 20.66 3.3 21 5 C19.35 5.66 17.7 6.32 16 7 C16.99 5.35 17.98 3.7 19 2 C12.4 2.33 5.8 2.66 -1 3 C-0.67 2.01 -0.34 1.02 0 0 Z " fill="#ABABAB" transform="translate(88,214)"/>
<path d="M0 0 C1.32 0.33 2.64 0.66 4 1 C4 3.31 4 5.62 4 8 C3.01 7.01 2.02 6.02 1 5 C0.30132812 5.6496875 -0.39734375 6.299375 -1.1171875 6.96875 C-2.48230469 8.22171875 -2.48230469 8.22171875 -3.875 9.5 C-4.77992188 10.3353125 -5.68484375 11.170625 -6.6171875 12.03125 C-9 14 -9 14 -11 14 C-11 13.34 -11 12.68 -11 12 C-9.609375 10.703125 -9.609375 10.703125 -7.75 9.25 C-4.36786064 6.46470876 -2.2333188 3.75197559 0 0 Z " fill="#ACACAC" transform="translate(161,257)"/>
<path d="M0 0 C3 2 3 2 4 5 C4.53642018 10.99346396 4.46993814 15.8593509 1 21 C0.01 21.66 -0.98 22.32 -2 23 C-1.690625 22.236875 -1.38125 21.47375 -1.0625 20.6875 C1.59495918 13.96569148 1.87779267 7.04172251 0 0 Z " fill="#8C8C8C" transform="translate(218,218)"/>
<path d="M0 0 C0.99 0.495 0.99 0.495 2 1 C2 1.99 2 2.98 2 4 C2.59167969 3.84402344 3.18335938 3.68804687 3.79296875 3.52734375 C11.64147627 1.5940246 11.64147627 1.5940246 16 3 C16 3.33 16 3.66 16 4 C10.61972975 5.19088986 5.54708616 6.2919519 0 6 C0 4.02 0 2.04 0 0 Z " fill="#9A9A9A" transform="translate(39,129)"/>
<path d="M0 0 C4.1761587 0.6264238 7.48752485 2.04236166 11.25 3.9375 C12.30703125 4.46214844 13.3640625 4.98679687 14.453125 5.52734375 C17 7 17 7 18 9 C15.03 8.01 12.06 7.02 9 6 C9 5.34 9 4.68 9 4 C7.88625 3.855625 6.7725 3.71125 5.625 3.5625 C2 3 2 3 0 2 C0 1.34 0 0.68 0 0 Z " fill="#898989" transform="translate(166,9)"/>
<path d="M0 0 C2.08379509 3.84700632 3.49686624 7.90054429 5 12 C5.66 11.01 6.32 10.02 7 9 C6.67 11.31 6.34 13.62 6 16 C5.01 16 4.02 16 3 16 C0.89424625 10.47239641 -0.37851209 5.93002267 0 0 Z " fill="#828282" transform="translate(49,238)"/>
<path d="M0 0 C0.33 0 0.66 0 1 0 C0.67 2.97 0.34 5.94 0 9 C-3.82320557 10.42258812 -6.91281305 11.24042276 -11 11 C-11 10.34 -11 9.68 -11 9 C-6.545 8.505 -6.545 8.505 -2 8 C-1.855625 6.865625 -1.71125 5.73125 -1.5625 4.5625 C-1 1 -1 1 0 0 Z " fill="#A3A3A3" transform="translate(99,115)"/>
<path d="M0 0 C3.24623365 2.92715941 5.00516159 5.62910463 6.75 9.625 C7.17796875 10.58664063 7.6059375 11.54828125 8.046875 12.5390625 C9 15 9 15 9 17 C8.34 17 7.68 17 7 17 C6.01330241 15.10807525 5.0359398 13.21128022 4.0625 11.3125 C3.51722656 10.25675781 2.97195312 9.20101562 2.41015625 8.11328125 C1.1529424 5.33765953 0.43930431 2.99727874 0 0 Z " fill="#9E9E9E" transform="translate(197,31)"/>
<path d="M0 0 C4.95 0 9.9 0 15 0 C15.33 1.65 15.66 3.3 16 5 C15.34 5 14.68 5 14 5 C14 4.01 14 3.02 14 2 C13.15695313 2.02320313 12.31390625 2.04640625 11.4453125 2.0703125 C9.80175781 2.09738281 9.80175781 2.09738281 8.125 2.125 C7.03445312 2.14820313 5.94390625 2.17140625 4.8203125 2.1953125 C2 2 2 2 0 0 Z " fill="#9B9B9B" transform="translate(64,214)"/>
<path d="M0 0 C2.08432499 3.12648749 3.28558611 6.05730868 4.625 9.5625 C5.07101563 10.71878906 5.51703125 11.87507812 5.9765625 13.06640625 C7 16 7 16 7 18 C6.34 18 5.68 18 5 18 C4.15321949 16.13103445 3.32313789 14.25449819 2.5 12.375 C2.0359375 11.33085937 1.571875 10.28671875 1.09375 9.2109375 C-0.02767398 5.91875709 -0.207138 3.44884777 0 0 Z " fill="#929292" transform="translate(79,235)"/>
<path d="M0 0 C1 3 1 3 1 6 C0.34 6 -0.32 6 -1 6 C-1.28875 6.94875 -1.5775 7.8975 -1.875 8.875 C-3 12 -3 12 -5 14 C-4.88490339 12.58249437 -4.75746342 11.16598831 -4.625 9.75 C-4.55539063 8.96109375 -4.48578125 8.1721875 -4.4140625 7.359375 C-3.9787895 4.87914019 -3.31630309 3.14017625 -2 1 C-1.34 0.67 -0.68 0.34 0 0 Z " fill="#F5F5F5" transform="translate(62,237)"/>
<path d="M0 0 C2 3 2 3 2 6 C4.475 6.99 4.475 6.99 7 8 C7 7.34 7 6.68 7 6 C9.31 6 11.62 6 14 6 C10.48886112 8.34075925 8.1804509 8.70663502 4 9 C1.5625 8.0625 1.5625 8.0625 0 7 C0 4.69 0 2.38 0 0 Z " fill="#8A8A8A" transform="translate(219,69)"/>
<path d="M0 0 C0.66 0 1.32 0 2 0 C1.125 5.875 1.125 5.875 0 7 C-1.85287502 7.07226502 -3.70833878 7.0838122 -5.5625 7.0625 C-6.57441406 7.05347656 -7.58632812 7.04445313 -8.62890625 7.03515625 C-9.41136719 7.02355469 -10.19382813 7.01195312 -11 7 C-7.55549263 4.70366176 -5.06187717 4.45983515 -1 4 C-0.67 2.68 -0.34 1.36 0 0 Z " fill="#A7A7A7" transform="translate(162,267)"/>
<path d="M0 0 C2.2477975 2.05233685 3.0022242 3.00667261 4 6 C4.06802967 7.72795352 4.08495645 9.45835365 4.0625 11.1875 C4.05347656 12.08855469 4.04445312 12.98960937 4.03515625 13.91796875 C4.02355469 14.60503906 4.01195312 15.29210937 4 16 C3.34 15.67 2.68 15.34 2 15 C1.62109375 13.14453125 1.62109375 13.14453125 1.4375 10.8125 C1.11159048 7.16929713 0.64673491 3.60323738 0 0 Z " fill="#8F8F8F" transform="translate(220,247)"/>
<path d="M0 0 C0.66 0 1.32 0 2 0 C2.33 0.66 2.66 1.32 3 2 C3.33 1.34 3.66 0.68 4 0 C4.66 0 5.32 0 6 0 C5.34 2.64 4.68 5.28 4 8 C3.34 7.67 2.68 7.34 2 7 C2 6.01 2 5.02 2 4 C1.34 4 0.68 4 0 4 C-0.33 4.99 -0.66 5.98 -1 7 C-0.67 4.69 -0.34 2.38 0 0 Z " fill="#9B9B9B" transform="translate(87,244)"/>
<path d="M0 0 C4.18423892 3.50897269 8.19588166 7.08060535 12 11 C11.67 11.66 11.34 12.32 11 13 C9.72486237 11.92173635 8.45507431 10.83714481 7.1875 9.75 C6.47980469 9.14671875 5.77210938 8.5434375 5.04296875 7.921875 C3.0657873 6.06188786 1.48607803 4.26896456 0 2 C0 1.34 0 0.68 0 0 Z " fill="#8C8C8C" transform="translate(185,18)"/>
<path d="M0 0 C1.32 0 2.64 0 4 0 C4 2 4 2 2.5 3.625 C2.005 4.07875 1.51 4.5325 1 5 C2.98 5 4.96 5 7 5 C7 5.33 7 5.66 7 6 C4.69 6 2.38 6 0 6 C-0.66 4.68 -1.32 3.36 -2 2 C-1.34 1.34 -0.68 0.68 0 0 Z " fill="#777777" transform="translate(113,269)"/>
<path d="M0 0 C-0.99 0.33 -1.98 0.66 -3 1 C-2.67 2.65 -2.34 4.3 -2 6 C-4.475 5.01 -4.475 5.01 -7 4 C-6.6875 2.0625 -6.6875 2.0625 -6 0 C-3 -1 -3 -1 0 0 Z " fill="#A8A8A8" transform="translate(182,213)"/>
<path d="M0 0 C2.875 -0.1875 2.875 -0.1875 6 0 C8 3 8 3 7.625 5.1875 C7.41875 5.785625 7.2125 6.38375 7 7 C6.773125 6.195625 6.54625 5.39125 6.3125 4.5625 C5.879375 3.716875 5.44625 2.87125 5 2 C2.45224694 1.10613836 2.45224694 1.10613836 0 1 C0 0.67 0 0.34 0 0 Z " fill="#848484" transform="translate(260,1)"/>
<path d="M0 0 C1.32 0.33 2.64 0.66 4 1 C2.71475739 1.86380259 1.42157581 2.71580369 0.125 3.5625 C-0.59429687 4.03816406 -1.31359375 4.51382813 -2.0546875 5.00390625 C-2.69664062 5.33261719 -3.33859375 5.66132813 -4 6 C-4.66 5.67 -5.32 5.34 -6 5 C-4.6875 3.5 -4.6875 3.5 -3 2 C-2.01 2 -1.02 2 0 2 C0 1.34 0 0.68 0 0 Z " fill="#9F9F9F" transform="translate(159,178)"/>
<path d="M0 0 C1.32 0.33 2.64 0.66 4 1 C4 3.31 4 5.62 4 8 C3.34 7.67 2.68 7.34 2 7 C2 5.35 2 3.7 2 2 C1.34 2 0.68 2 0 2 C0 1.34 0 0.68 0 0 Z " fill="#838383" transform="translate(161,257)"/>
<path d="M0 0 C5.53846154 0.61538462 5.53846154 0.61538462 7.875 2.5625 C8.431875 3.2740625 8.431875 3.2740625 9 4 C5.87709365 3.51421457 3.00419641 3.0013988 0 2 C0 1.34 0 0.68 0 0 Z " fill="#949494" transform="translate(209,214)"/>
<path d="M0 0 C2.88395737 1.44197868 4.76525152 3.70644235 7 6 C4.03 5.505 4.03 5.505 1 5 C0.67 3.35 0.34 1.7 0 0 Z " fill="#777777" transform="translate(213,241)"/>
<path d="M0 0 C1.98 0.495 1.98 0.495 4 1 C3.01 1.33 2.02 1.66 1 2 C1.33 3.32 1.66 4.64 2 6 C1.01 5.67 0.02 5.34 -1 5 C-0.67 3.35 -0.34 1.7 0 0 Z " fill="#8B8B8B" transform="translate(56,214)"/>
<path d="M0 0 C2.64 0 5.28 0 8 0 C5.23776722 2.76223278 2.79293383 2.57856291 -1 3 C-0.67 2.01 -0.34 1.02 0 0 Z " fill="#A5A5A5" transform="translate(88,214)"/>
</svg>
